<?xml version="1.0" encoding="utf-8"?>
<!-- Generator: Adobe Illustrator 24.1.1, SVG Export Plug-In . SVG Version: 6.00 Build 0)  -->
<svg version="1.1" id="圖層_1" xmlns="http://www.w3.org/2000/svg" xmlns:xlink="http://www.w3.org/1999/xlink" x="0px" y="0px"
	 viewBox="0 0 512 512" style="enable-background:new 0 0 512 512;" xml:space="preserve">
<style type="text/css">
	.st0{display:none;}
	.st1{fill:#C7000B;stroke:#000000;stroke-miterlimit:10;}
	.st2{fill:#9FA0A0;stroke:#000000;stroke-miterlimit:10;}
	.st3{fill:#595757;stroke:#000000;stroke-miterlimit:10;}
</style>
<g id="圖層_1_1_" class="st0">
	
		<image style="display:inline;overflow:visible;enable-background:new    ;" width="128" height="128" xlink:href="IMG/favicon_128.jpg"  transform="matrix(0.75 0 0 0.75 0 0)">
	</image>
</g>
<g id="圖層_2_1_">
	<polygon class="st1" points="180.1,30.1 38.8,138.9 38.8,410.5 289.3,508.2 289.3,265.8 186.9,233.2 186.9,303.2 219.4,314.6 
		219.4,391 118.5,352 118.5,168.2 178.7,121 	"/>
	<polygon class="st2" points="216.1,174.7 216.1,212.1 289.3,234.9 289.3,195.8 	"/>
</g>
<g>
	<polygon class="st2" points="473.2,106.3 216.1,3.8 216.1,143.8 289.3,164.9 289.3,124.2 398.3,164.9 398.3,165.4 473.2,106.8 	"/>
	<polygon class="st3" points="398.3,165.4 398.3,352 330.3,402.1 330.3,493.2 473.2,376.4 473.2,106.8 	"/>
</g>
</svg>
