<?xml version="1.0" encoding="utf-8"?>
<!-- Generator: Adobe Illustrator 24.1.1, SVG Export Plug-In . SVG Version: 6.00 Build 0)  -->
<svg version="1.1" id="圖層_1" xmlns="http://www.w3.org/2000/svg" xmlns:xlink="http://www.w3.org/1999/xlink" x="0px" y="0px"
	 viewBox="0 0 81 81" style="enable-background:new 0 0 81 81;" xml:space="preserve">
<style type="text/css">
	.st0{display:none;}
	.st1{fill:none;stroke:#000000;stroke-miterlimit:10;}
</style>
<g id="圖層_1_1_" class="st0">
	
		<image style="display:inline;overflow:visible;enable-background:new    ;" width="128" height="128" xlink:href="IMG/favicon_128.jpg"  transform="matrix(0.75 0 0 0.75 0 0)">
	</image>
</g>
<g id="圖層_2_1_">
	<polygon class="st1" points="30,8.6 9.8,24.1 9.8,62.9 45.6,76.8 45.6,42.2 30.9,37.6 30.9,47.6 35.6,49.2 35.6,60.1 21.2,54.5 
		21.2,28.3 29.8,21.5 	"/>
	<polygon class="st1" points="35.1,29.2 35.1,34.5 45.6,37.8 45.6,32.2 	"/>
</g>
<g>
	<polygon class="st1" points="71.8,19.4 35.1,4.8 35.1,24.8 45.6,27.8 45.6,22 61.1,27.8 61.1,27.9 71.8,19.5 	"/>
	<polygon class="st1" points="61.1,27.9 61.1,54.5 51.4,61.7 51.4,74.7 71.8,58 71.8,19.5 	"/>
</g>
</svg>
